<?xml version="1.0" standalone="no"?><!DOCTYPE svg PUBLIC "-//W3C//DTD SVG 1.1//EN" "http://www.w3.org/Graphics/SVG/1.1/DTD/svg11.dtd"><svg class="icon" width="200px" height="200.00px" viewBox="0 0 1024 1024" version="1.1" xmlns="http://www.w3.org/2000/svg"><path fill="#2c2c2c" d="M967.4752 0H56.5248C25.2928 0 0 25.2928 0 56.5248v910.9504C0 998.7072 25.2928 1024 56.5248 1024h490.3936v-396.544H413.4912V472.9344h133.4272V358.912c0-132.3008 80.7936-204.288 198.8096-204.288 56.5248 0 105.0624 4.1984 119.2448 6.0928v138.24h-81.8176c-64.2048 0-76.5952 30.5152-76.5952 75.264v98.6624h153.0368l-19.968 154.5216h-133.12V1024h260.9664c31.232 0 56.5248-25.2928 56.5248-56.5248V56.5248C1024 25.2928 998.7072 0 967.4752 0z"  /></svg>