<?xml version="1.0" standalone="no"?><!DOCTYPE svg PUBLIC "-//W3C//DTD SVG 1.1//EN" "http://www.w3.org/Graphics/SVG/1.1/DTD/svg11.dtd"><svg class="icon" width="200px" height="200.00px" viewBox="0 0 1024 1024" version="1.1" xmlns="http://www.w3.org/2000/svg"><path fill="#2c2c2c" d="M717.142857 691.428571q0-18.285714-17.142857-29.142857-110.285714-65.714286-255.428571-65.714285-76 0-164 19.428571-24 5.142857-24 29.714286 0 11.428571 7.714285 19.714285T284.571429 673.714286q2.857143 0 21.142857-4.571429 75.428571-15.428571 138.857143-15.428571 129.142857 0 226.857142 58.857143 10.857143 6.285714 18.857143 6.285714 10.857143 0 18.857143-7.714286t8-19.714286z m54.857143-122.857142q0-22.857143-20-34.857143-135.428571-80.571429-313.142857-80.571429-87.428571 0-173.142857 24-27.428571 7.428571-27.428572 36.571429 0 14.285714 10 24.285714T272.571429 548q4 0 21.142857-4.571429 69.714286-18.857143 143.428571-18.857142 159.428571 0 278.857143 70.857142 13.714286 7.428571 21.714286 7.428572 14.285714 0 24.285714-10T772 568.571429z m61.714286-141.714286q0-26.857143-22.857143-40-72-41.714286-167.428572-63.142857T447.428571 302.285714q-116.571429 0-208 26.857143-13.142857 4-22 14.571429T208.571429 371.428571q0 17.714286 11.714285 29.714286t29.428572 12q6.285714 0 22.857143-4.571428 76-21.142857 175.428571-21.142858 90.857143 0 176.857143 19.428572t144.857143 54.285714q12 6.857143 22.857143 6.857143 16.571429 0 28.857142-11.714286T833.714286 426.857143z m117.142857 85.142857q0 119.428571-58.857143 220.285714T732.285714 892 512 950.857143t-220.285714-58.857143T132 732.285714 73.142857 512t58.857143-220.285714T291.714286 132 512 73.142857t220.285714 58.857143T892 291.714286 950.857143 512z" /></svg>