<?xml version="1.0" standalone="no"?><!DOCTYPE svg PUBLIC "-//W3C//DTD SVG 1.1//EN" "http://www.w3.org/Graphics/SVG/1.1/DTD/svg11.dtd"><svg t="1604548986246" class="icon" viewBox="0 0 1024 1024" version="1.1" xmlns="http://www.w3.org/2000/svg" p-id="2886" xmlns:xlink="http://www.w3.org/1999/xlink" width="200" height="200"><defs><style type="text/css"></style></defs><path d="M812.88 932.576l-638.848 0 0-274.272-91.424 0 0 365.728 821.728 0 0-365.728-91.424 0 0 274.272zM274.576 633.152l18.848-89.728 447.424 94.272-18.848 89.152zM333.456 419.424l38.272-83.424 414.272 193.728-38.272 82.848zM448.304 216l58.272-70.272 350.848 293.152-58.272 70.272zM675.152 0l272.576 366.272-73.152 54.848-272.576-366.272zM264.88 840.576l0-90.848 457.152 0 0 90.848-457.152 0z" p-id="2887"></path></svg>