<?xml version="1.0" standalone="no"?><!DOCTYPE svg PUBLIC "-//W3C//DTD SVG 1.1//EN" "http://www.w3.org/Graphics/SVG/1.1/DTD/svg11.dtd"><svg class="icon" width="200px" height="200.00px" viewBox="0 0 1024 1024" version="1.1" xmlns="http://www.w3.org/2000/svg"><path fill="#2c2c2c" d="M933.799652 195.213054c0-58.295708-47.258327-105.554034-105.554034-105.554034l-633.119545 0c-58.295708 0-105.554034 47.258327-105.554034 105.554034l0 633.119545c0 58.295708 47.258327 105.554034 105.554034 105.554034l633.119545 0c58.295708 0 105.554034-47.258327 105.554034-105.554034L933.799652 195.213054zM794.009885 400.222217c0.274246 5.666046 0.454348 11.370978 0.454348 17.117866 0 174.804235-132.921335 376.370996-376.24206 376.370996-74.730005 0-143.974066-21.917172-202.532763-59.422368 10.352789 1.178849 21.366633 1.849114 32.073486 1.849114 61.97654 0 120.06247-21.173229 165.318186-56.629765-57.889455-1.102101-104.684224-39.315424-121.530914-91.889827 8.107655 1.532913 20.445658 2.399653 28.991288 2.399653 12.08013 0 19.148106-1.610684 30.245861-4.641717-60.488653-12.159948-102.601796-65.638953-102.601796-129.7102 0-0.586354 0-1.098008 0-1.64957 0 9.914814 34.714639 15.858176 56.399521 16.563234-35.498492-23.724331-68.75492-64.221674-68.75492-110.10877 0-24.201192 9.68764-46.946218 21.100574-66.505693 65.246003 80.048127 164.321486 132.699278 274.233781 138.249691-2.245134-9.679453-2.628874-19.794835-2.628874-30.144554 0-73.03848 59.628052-132.267443 132.705418-132.267443 38.055734 0 72.609715 16.096607 96.734158 41.792848 30.144554-5.978155 58.57814-16.960277 84.116793-32.109302-9.833973 30.852682-30.761608 56.82317-58.074673 73.158207 26.704199-3.182482 36.348859-10.29139 60.034305-20.760836 0.031722-0.048095-15.651468-0.090051-15.651468-0.138146l0 0.080841c0 0.022513 15.703657 0.035816 15.652492 0.058328C826.315662 358.346481 819.818691 381.603161 794.009885 400.222217z" /></svg>