<?xml version="1.0" standalone="no"?><!DOCTYPE svg PUBLIC "-//W3C//DTD SVG 1.1//EN" "http://www.w3.org/Graphics/SVG/1.1/DTD/svg11.dtd"><svg class="icon" width="200px" height="200.00px" viewBox="0 0 1024 1024" version="1.1" xmlns="http://www.w3.org/2000/svg"><path fill="#2c2c2c" d="M607.99635 288.101627 607.99635 64.110133 192.012148 64.110133 192.012148 448.095551 831.987844 448.095551 831.987844 288.101627ZM831.987844 256.102842 639.995135 256.102842 639.995135 64.110133ZM0.019439 511.742127l0 447.982988 1023.961114 0 0-447.982988L0.019439 511.742127zM336.35051 666.548912 254.541273 666.548912l0 214.241432-59.122539 0L195.418734 666.548912l-81.778538 0 0-54.56064 222.710314 0L336.35051 666.548912zM556.092213 880.791367l-60.278875-92.183516-60.685127 92.183516-67.185168 0 93.683682-136.681986-89.840144-132.120087 69.122287 0 56.435337 87.184665 56.841589-87.184665 67.185168 0L531.529795 743.295853l93.715405 137.494491L556.092213 880.790344zM879.485625 666.548912l-81.746816 0 0 214.241432L738.61627 880.790344 738.61627 666.548912l-81.809237 0 0-54.56064 222.678592 0L879.485625 666.548912z" /></svg>